# Blender 5.2.0 LTS
# www.blender.org
mtllib TentFinal.mtl
o Cube
v -3.030736 -0.063363 3.022734
v -3.030736 0.063363 3.022734
v -3.030736 -0.063363 2.938057
v -3.030736 0.063363 2.938057
v -2.946060 -0.063363 3.022734
v -2.946060 0.063363 3.022734
v -2.946060 -0.063363 2.938057
v -2.946060 0.063363 2.938057
v -3.032603 0.063363 2.839007
v -3.032603 -0.063363 2.839007
v -2.847772 -0.063363 2.839007
v -2.847772 0.063363 2.839007
v -2.847772 -0.063363 3.023801
v -2.847772 0.063363 3.023801
v -3.030736 2.118404 3.022734
v -3.030736 2.118404 2.938057
v -2.946060 2.118404 3.022734
v -2.946060 2.118404 2.938057
v -3.030736 2.315677 3.022734
v -3.030736 2.315677 2.938057
v -2.946060 2.315677 3.022734
v -2.946060 2.315677 2.938057
v -3.030736 4.668324 3.022734
v -3.030736 4.668324 2.938057
v -2.946060 4.668324 3.022734
v -2.946060 4.668324 2.938057
v -3.046794 2.118404 3.038792
v -3.046794 2.118404 2.921999
v -2.930002 2.118404 3.038792
v -2.930002 2.118404 2.921999
v -3.046794 2.315677 3.038792
v -3.046794 2.315677 2.921999
v -2.930002 2.315677 3.038792
v -2.930002 2.315677 2.921999
v -2.946060 3.999078 2.938057
v -2.946060 3.999078 3.022734
v -3.030736 3.999078 3.022734
v -3.030736 3.999078 2.938057
v 0.000000 4.668324 3.022734
v 0.000000 3.999078 3.022734
v -3.030736 4.668324 0.000000
v -3.030736 3.999078 0.000000
v 0.000000 5.911736 0.000000
v -1.515368 5.379591 0.000000
v 0.000000 5.379591 1.511367
v -1.473030 5.379591 1.469029
v 3.030736 -0.063363 3.022734
v 3.030736 0.063363 3.022734
v 3.030736 -0.063363 2.938057
v 3.030736 0.063363 2.938057
v 2.946060 -0.063363 3.022734
v 2.946060 0.063363 3.022734
v 2.946060 -0.063363 2.938057
v 2.946060 0.063363 2.938057
v 3.032603 0.063363 2.839007
v 3.032603 -0.063363 2.839007
v 2.847772 -0.063363 2.839007
v 2.847772 0.063363 2.839007
v 2.847772 -0.063363 3.023801
v 2.847772 0.063363 3.023801
v 3.030736 2.118404 3.022734
v 3.030736 2.118404 2.938057
v 2.946060 2.118404 3.022734
v 2.946060 2.118404 2.938057
v 3.030736 2.315677 3.022734
v 3.030736 2.315677 2.938057
v 2.946060 2.315677 3.022734
v 2.946060 2.315677 2.938057
v 3.030736 4.668324 3.022734
v 3.030736 4.668324 2.938057
v 2.946060 4.668324 3.022734
v 2.946060 4.668324 2.938057
v 3.046794 2.118404 3.038792
v 3.046794 2.118404 2.921999
v 2.930002 2.118404 3.038792
v 2.930002 2.118404 2.921999
v 3.046794 2.315677 3.038792
v 3.046794 2.315677 2.921999
v 2.930002 2.315677 3.038792
v 2.930002 2.315677 2.921999
v 2.946060 3.999078 2.938057
v 2.946060 3.999078 3.022734
v 3.030736 3.999078 3.022734
v 3.030736 3.999078 2.938057
v 3.030736 4.668324 0.000000
v 3.030736 3.999078 0.000000
v 1.515368 5.379591 0.000000
v 1.473030 5.379591 1.469029
v -3.030736 -0.063363 -3.022734
v -3.030736 0.063363 -3.022734
v -3.030736 -0.063363 -2.938057
v -3.030736 0.063363 -2.938057
v -2.946060 -0.063363 -3.022734
v -2.946060 0.063363 -3.022734
v -2.946060 -0.063363 -2.938057
v -2.946060 0.063363 -2.938057
v -3.032603 0.063363 -2.839007
v -3.032603 -0.063363 -2.839007
v -2.847772 -0.063363 -2.839007
v -2.847772 0.063363 -2.839007
v -2.847772 -0.063363 -3.023801
v -2.847772 0.063363 -3.023801
v -3.030736 2.118404 -3.022734
v -3.030736 2.118404 -2.938057
v -2.946060 2.118404 -3.022734
v -2.946060 2.118404 -2.938057
v -3.030736 2.315677 -3.022734
v -3.030736 2.315677 -2.938057
v -2.946060 2.315677 -3.022734
v -2.946060 2.315677 -2.938057
v -3.030736 4.668324 -3.022734
v -3.030736 4.668324 -2.938057
v -2.946060 4.668324 -3.022734
v -2.946060 4.668324 -2.938057
v -3.046794 2.118404 -3.038792
v -3.046794 2.118404 -2.921999
v -2.930002 2.118404 -3.038792
v -2.930002 2.118404 -2.921999
v -3.046794 2.315677 -3.038792
v -3.046794 2.315677 -2.921999
v -2.930002 2.315677 -3.038792
v -2.930002 2.315677 -2.921999
v -2.946060 3.999078 -2.938057
v -2.946060 3.999078 -3.022734
v -3.030736 3.999078 -3.022734
v -3.030736 3.999078 -2.938057
v 0.000000 4.668324 -3.022734
v 0.000000 3.999078 -3.022734
v 0.000000 5.379591 -1.511367
v -1.473030 5.379591 -1.469029
v 3.030736 -0.063363 -3.022734
v 3.030736 0.063363 -3.022734
v 3.030736 -0.063363 -2.938057
v 3.030736 0.063363 -2.938057
v 2.946060 -0.063363 -3.022734
v 2.946060 0.063363 -3.022734
v 2.946060 -0.063363 -2.938057
v 2.946060 0.063363 -2.938057
v 3.032603 0.063363 -2.839007
v 3.032603 -0.063363 -2.839007
v 2.847772 -0.063363 -2.839007
v 2.847772 0.063363 -2.839007
v 2.847772 -0.063363 -3.023801
v 2.847772 0.063363 -3.023801
v 3.030736 2.118404 -3.022734
v 3.030736 2.118404 -2.938057
v 2.946060 2.118404 -3.022734
v 2.946060 2.118404 -2.938057
v 3.030736 2.315677 -3.022734
v 3.030736 2.315677 -2.938057
v 2.946060 2.315677 -3.022734
v 2.946060 2.315677 -2.938057
v 3.030736 4.668324 -3.022734
v 3.030736 4.668324 -2.938057
v 2.946060 4.668324 -3.022734
v 2.946060 4.668324 -2.938057
v 3.046794 2.118404 -3.038792
v 3.046794 2.118404 -2.921999
v 2.930002 2.118404 -3.038792
v 2.930002 2.118404 -2.921999
v 3.046794 2.315677 -3.038792
v 3.046794 2.315677 -2.921999
v 2.930002 2.315677 -3.038792
v 2.930002 2.315677 -2.921999
v 2.946060 3.999078 -2.938057
v 2.946060 3.999078 -3.022734
v 3.030736 3.999078 -3.022734
v 3.030736 3.999078 -2.938057
v 1.473030 5.379591 -1.469029
vn -1.0000 -0.0000 -0.0000
vn -1.0000 -0.0000 0.0063
vn -1.0000 -0.0000 0.0094
vn -0.0000 -1.0000 -0.0000
vn -0.0036 -0.0000 1.0000
vn -0.0054 -0.0000 1.0000
vn -0.0109 -0.0000 0.9999
vn -0.0000 -0.0000 1.0000
vn 1.0000 -0.0000 -0.0000
vn -0.0000 -0.0000 -1.0000
vn -0.0000 1.0000 -0.0000
vn -0.9998 -0.0000 0.0188
vn -0.3728 0.9279 -0.0000
vn -0.2086 0.9554 0.2091
vn -0.2212 0.9497 0.2215
vn -0.0119 0.9106 0.4131
vn -0.0000 0.9107 0.4131
vn -0.0000 0.9276 0.3737
vn -0.4123 0.9111 -0.0000
vn -0.4122 0.9110 0.0119
vn 1.0000 -0.0000 0.0094
vn 1.0000 -0.0000 0.0063
vn 0.0036 -0.0000 1.0000
vn 0.0109 -0.0000 0.9999
vn 0.0054 -0.0000 1.0000
vn 0.9998 -0.0000 0.0188
vn 0.3728 0.9279 -0.0000
vn 0.2086 0.9554 0.2091
vn 0.0119 0.9106 0.4131
vn 0.2212 0.9497 0.2215
vn 0.4123 0.9111 -0.0000
vn 0.4122 0.9110 0.0119
vn -1.0000 -0.0000 -0.0094
vn -1.0000 -0.0000 -0.0063
vn -0.0036 -0.0000 -1.0000
vn -0.0109 -0.0000 -0.9999
vn -0.0054 -0.0000 -1.0000
vn -0.9998 -0.0000 -0.0188
vn -0.2086 0.9554 -0.2091
vn -0.0000 0.9276 -0.3737
vn -0.0000 0.9107 -0.4131
vn -0.0119 0.9106 -0.4131
vn -0.2212 0.9497 -0.2215
vn -0.4122 0.9110 -0.0119
vn 1.0000 -0.0000 -0.0063
vn 1.0000 -0.0000 -0.0094
vn 0.0036 -0.0000 -1.0000
vn 0.0054 -0.0000 -1.0000
vn 0.0109 -0.0000 -0.9999
vn 0.9998 -0.0000 -0.0188
vn 0.2086 0.9554 -0.2091
vn 0.2212 0.9497 -0.2215
vn 0.0119 0.9106 -0.4131
vn 0.4122 0.9110 -0.0119
vt 0.698385 0.706544
vt 0.687621 0.706544
vt 0.687621 0.699351
vt 0.698385 0.699351
vt 0.744613 0.622721
vt 0.737420 0.622721
vt 0.729007 0.614372
vt 0.744704 0.614372
vt 0.687621 0.713736
vt 0.698385 0.713736
vt 0.698385 0.722085
vt 0.687621 0.722085
vt 0.737420 0.629914
vt 0.744613 0.629913
vt 0.691791 -0.000000
vt 0.698984 0.000000
vt 0.698984 0.174557
vt 0.691791 0.174557
vt 0.698385 0.690936
vt 0.687621 0.690936
vt 0.687621 0.675236
vt 0.698385 0.675236
vt 0.698385 0.737782
vt 0.687621 0.737782
vt 0.724154 0.460694
vt 0.724154 0.467886
vt 0.715740 0.476235
vt 0.715740 0.460535
vt 0.743295 0.378779
vt 0.743295 0.385972
vt 0.734947 0.386062
vt 0.734947 0.370366
vt 0.729007 0.630072
vt 0.743503 0.474198
vt 0.736311 0.474198
vt 0.734947 0.472834
vt 0.744867 0.472834
vt 0.677406 -0.000000
vt 0.684599 -0.000000
vt 0.684599 0.174557
vt 0.677406 0.174557
vt 0.670214 -0.000000
vt 0.670214 0.174557
vt 0.727754 0.307567
vt 0.734946 0.307567
vt 0.734946 0.364413
vt 0.727754 0.364413
vt 0.736310 0.441708
vt 0.743503 0.441708
vt 0.744867 0.443072
vt 0.734947 0.443072
vt 0.743503 0.434516
vt 0.736310 0.434516
vt 0.734947 0.433152
vt 0.744867 0.433152
vt 0.736311 0.481390
vt 0.734947 0.482754
vt 0.706545 0.706754
vt 0.700237 0.699963
vt 0.707074 0.695872
vt 0.713336 0.700447
vt 0.700237 0.643669
vt 0.707360 0.643669
vt 0.716391 0.643927
vt 0.727754 0.364413
vt 0.734946 0.364413
vt 0.734946 0.421260
vt 0.727754 0.421260
vt 0.698984 0.500217
vt 0.698984 0.490296
vt 0.715740 0.490296
vt 0.715740 0.500217
vt 0.698984 0.470455
vt 0.698984 0.460535
vt 0.715740 0.470455
vt 0.698984 0.480376
vt 0.715740 0.480376
vt 0.743503 0.481390
vt 0.744867 0.482754
vt 0.670214 0.349113
vt 0.677406 0.349113
vt 0.677406 0.492102
vt 0.670214 0.492102
vt 0.684599 0.349113
vt 0.691791 0.349113
vt 0.691791 0.492102
vt 0.684599 0.492102
vt 0.698984 0.349113
vt 0.698984 0.492102
vt 0.000000 0.500614
vt 0.000256 0.250340
vt 0.057117 0.250340
vt 0.056854 0.500672
vt 0.335734 0.500745
vt 0.392588 0.500687
vt 0.392849 0.750340
vt 0.335988 0.750340
vt 0.535110 0.750340
vt 0.538468 0.625612
vt 0.671467 0.750340
vt 0.202427 0.375408
vt 0.064043 0.500680
vt 0.199070 0.250340
vt 0.335107 0.250340
vt 0.399776 0.500680
vt 0.738518 0.094323
vt 0.738518 0.101516
vt 0.727754 0.101516
vt 0.727754 0.094323
vt 0.747043 0.491868
vt 0.747133 0.500217
vt 0.731437 0.500217
vt 0.739850 0.491868
vt 0.727754 0.087131
vt 0.727754 0.078782
vt 0.738518 0.078782
vt 0.738518 0.087131
vt 0.739850 0.484676
vt 0.747043 0.484676
vt 0.677406 0.349113
vt 0.670214 0.349113
vt 0.738518 0.109931
vt 0.738518 0.125630
vt 0.727754 0.125630
vt 0.727754 0.109931
vt 0.738518 0.063085
vt 0.727754 0.063085
vt 0.734947 0.354825
vt 0.743360 0.354666
vt 0.743360 0.370366
vt 0.734947 0.362017
vt 0.743295 0.393346
vt 0.734946 0.401759
vt 0.734946 0.386062
vt 0.743295 0.386153
vt 0.731437 0.484517
vt 0.744756 0.509236
vt 0.746120 0.510600
vt 0.736200 0.510600
vt 0.737564 0.509236
vt 0.691791 0.349113
vt 0.684599 0.349113
vt 0.698984 0.349113
vt 0.734946 0.250721
vt 0.734946 0.307567
vt 0.727754 0.307567
vt 0.727754 0.250721
vt 0.736310 0.451629
vt 0.734946 0.452993
vt 0.734946 0.443072
vt 0.736310 0.444436
vt 0.743503 0.444436
vt 0.744867 0.443072
vt 0.744867 0.452993
vt 0.743503 0.451629
vt 0.736200 0.500680
vt 0.737564 0.502044
vt 0.681313 0.738322
vt 0.674522 0.732014
vt 0.680784 0.727439
vt 0.687621 0.731530
vt 0.687621 0.675236
vt 0.680498 0.675236
vt 0.671467 0.675495
vt 0.742139 0.250721
vt 0.742139 0.307567
vt 0.734946 0.307567
vt 0.734946 0.250721
vt 0.733750 0.706754
vt 0.750507 0.706754
vt 0.750507 0.716675
vt 0.733750 0.716675
vt 0.733750 0.736516
vt 0.750507 0.736516
vt 0.750507 0.746436
vt 0.733750 0.746436
vt 0.750507 0.726595
vt 0.733750 0.726595
vt 0.746120 0.500680
vt 0.744756 0.502044
vt 0.727754 0.174557
vt 0.727754 0.317546
vt 0.720561 0.317546
vt 0.720561 0.174557
vt 0.713369 0.174557
vt 0.713369 0.317546
vt 0.706176 0.317546
vt 0.706176 0.174557
vt 0.698984 0.317546
vt 0.698984 0.174557
vt -0.000000 0.000066
vt 0.056854 0.000008
vt 0.000000 0.999934
vt 0.000255 0.750340
vt 0.057116 0.750340
vt 0.056854 0.999992
vt 0.199377 0.750340
vt 0.335734 0.750340
vt 0.202734 0.875068
vt 0.202427 0.125272
vt 0.064043 -0.000000
vt 0.064043 1.000000
vt 0.738518 0.156869
vt 0.738518 0.164061
vt 0.727754 0.164061
vt 0.727754 0.156869
vt 0.750552 0.314918
vt 0.750643 0.323267
vt 0.734946 0.323267
vt 0.743360 0.314918
vt 0.727754 0.149676
vt 0.727754 0.141327
vt 0.738518 0.141327
vt 0.738518 0.149676
vt 0.743360 0.307726
vt 0.750552 0.307726
vt 0.678660 0.500680
vt 0.678660 0.675236
vt 0.671467 0.675236
vt 0.671467 0.500680
vt 0.738518 0.172476
vt 0.738518 0.188176
vt 0.727754 0.188176
vt 0.727754 0.172476
vt 0.738518 0.125630
vt 0.727754 0.125630
vt 0.743360 0.354508
vt 0.734947 0.354666
vt 0.734947 0.338967
vt 0.743360 0.347315
vt 0.734946 0.410172
vt 0.743295 0.401759
vt 0.743295 0.417455
vt 0.734946 0.417365
vt 0.736311 0.454357
vt 0.734947 0.452993
vt 0.744867 0.452993
vt 0.743503 0.454357
vt 0.693045 0.500680
vt 0.693045 0.675236
vt 0.685852 0.675236
vt 0.685852 0.500680
vt 0.700237 0.500680
vt 0.700237 0.675236
vt 0.734946 0.421260
vt 0.734946 0.478106
vt 0.727754 0.478106
vt 0.744756 0.519157
vt 0.746120 0.520521
vt 0.736200 0.520521
vt 0.737564 0.519157
vt 0.737564 0.511964
vt 0.736200 0.510600
vt 0.746120 0.510600
vt 0.744756 0.511964
vt 0.744867 0.462913
vt 0.743503 0.461549
vt 0.737600 0.063085
vt 0.730809 0.056778
vt 0.737071 0.052202
vt 0.743908 0.056294
vt 0.743908 0.000000
vt 0.736785 0.000000
vt 0.727754 0.000258
vt 0.736200 0.500680
vt 0.736200 0.557526
vt 0.729007 0.557526
vt 0.729007 0.500680
vt 0.700237 0.706754
vt 0.716994 0.706754
vt 0.716994 0.716675
vt 0.700237 0.716675
vt 0.700237 0.736516
vt 0.716994 0.736516
vt 0.716994 0.746436
vt 0.700237 0.746436
vt 0.716994 0.726595
vt 0.700237 0.726595
vt 0.734947 0.462913
vt 0.736311 0.461549
vt 0.727754 0.317546
vt 0.727754 0.460535
vt 0.720561 0.460535
vt 0.720561 0.317546
vt 0.713369 0.317546
vt 0.713369 0.460535
vt 0.706176 0.460535
vt 0.706176 0.317546
vt 0.698984 0.460535
vt 0.698984 0.317546
vt 0.335107 0.000066
vt 0.391961 0.000008
vt 0.392224 0.250340
vt 0.335363 0.250340
vt 0.335734 0.999934
vt 0.392588 0.999992
vt 0.538468 0.875068
vt 0.537534 0.125272
vt 0.534177 0.250340
vt 0.399150 0.000000
vt 0.670214 0.250340
vt 0.399776 1.000000
vt 0.738518 0.219483
vt 0.727754 0.219483
vt 0.727754 0.212290
vt 0.738518 0.212290
vt 0.731346 0.492866
vt 0.724154 0.492866
vt 0.715740 0.484517
vt 0.731437 0.484517
vt 0.727754 0.226675
vt 0.738518 0.226675
vt 0.738518 0.235024
vt 0.727754 0.235024
vt 0.724154 0.500058
vt 0.731346 0.500058
vt 0.720561 -0.000000
vt 0.727754 -0.000000
vt 0.727754 0.174557
vt 0.720561 0.174557
vt 0.738518 0.203875
vt 0.727754 0.203875
vt 0.727754 0.188176
vt 0.738518 0.188176
vt 0.738518 0.250721
vt 0.727754 0.250721
vt 0.743360 0.323426
vt 0.743360 0.330618
vt 0.734947 0.338967
vt 0.734947 0.323267
vt 0.743295 0.425869
vt 0.743295 0.433061
vt 0.734947 0.433152
vt 0.734947 0.417455
vt 0.736311 0.464277
vt 0.736311 0.471470
vt 0.706176 -0.000000
vt 0.713369 -0.000000
vt 0.713369 0.174557
vt 0.706176 0.174557
vt 0.698984 -0.000000
vt 0.732545 0.643669
vt 0.739737 0.643669
vt 0.739737 0.700515
vt 0.732545 0.700515
vt 0.737564 0.631436
vt 0.730371 0.631436
vt 0.729007 0.630072
vt 0.738928 0.630072
vt 0.730371 0.638629
vt 0.737564 0.638629
vt 0.738928 0.639993
vt 0.729007 0.639993
vt 0.743503 0.471470
vt 0.744867 0.472834
vt 0.722699 0.706754
vt 0.716391 0.699963
vt 0.723228 0.695872
vt 0.729490 0.700447
vt 0.716391 0.643669
vt 0.723514 0.643669
vt 0.732545 0.643927
vt 0.729007 0.557526
vt 0.736200 0.614372
vt 0.733750 0.736516
vt 0.733750 0.746436
vt 0.733750 0.706754
vt 0.733750 0.716675
vt 0.733750 0.726595
vt 0.743503 0.464277
vt 0.744867 0.462913
vt 0.700237 0.500680
vt 0.707430 0.500680
vt 0.707430 0.643669
vt 0.700237 0.643669
vt 0.714622 0.500680
vt 0.721815 0.500680
vt 0.721815 0.643669
vt 0.714622 0.643669
vt 0.729007 0.500680
vt 0.729007 0.643669
vt 0.335107 0.500614
vt 0.391961 0.500672
vt 0.000000 0.500745
vt 0.056854 0.500687
vt 0.202734 0.625612
vt 0.537534 0.375408
vt 0.399150 0.500680
vt 0.064043 0.500680
s 1
usemtl Base
f 1/1/1 2/2/1 4/3/2 3/4/3
f 5/5/4 7/6/4 11/7/4 13/8/4
f 6/9/5 5/10/6 13/11/7 14/12/7
f 5/10/6 6/9/5 2/2/8 1/1/8
f 3/13/4 7/6/4 5/5/4 1/14/4
f 10/19/10 9/20/10 12/21/10 11/22/10
f 11/23/9 12/24/9 14/12/9 13/11/9
f 4/25/11 8/26/11 12/27/11 9/28/11
f 3/4/3 4/3/2 9/20/12 10/19/12
f 8/29/11 6/30/11 14/31/11 12/32/11
f 7/6/4 3/13/4 10/33/4 11/7/4
f 17/34/4 18/35/4 30/36/4 29/37/4
f 19/48/11 20/49/11 32/50/11 31/51/11
f 22/52/11 21/53/11 33/54/11 34/55/11
f 18/35/4 16/56/4 28/57/4 30/36/4
f 30/69/10 28/70/10 32/71/10 34/72/10
f 29/73/9 30/74/9 34/28/9 33/75/9
f 28/70/1 27/76/1 31/77/1 32/71/1
f 27/76/8 29/73/8 33/75/8 31/77/8
f 21/53/11 19/48/11 31/51/11 33/54/11
f 16/56/4 15/78/4 27/79/4 28/57/4
f 20/49/11 22/52/11 34/55/11 32/50/11
f 15/78/4 17/34/4 29/37/4 27/79/4
f 47/106/9 49/107/21 50/108/22 48/109/9
f 51/110/4 59/111/4 57/112/4 53/113/4
f 52/114/23 60/115/24 59/116/24 51/117/25
f 51/117/25 47/106/8 48/109/8 52/114/23
f 49/118/4 47/119/4 51/110/4 53/113/4
f 56/122/10 57/123/10 58/124/10 55/125/10
f 57/126/1 59/116/1 60/115/1 58/127/1
f 50/128/11 55/129/11 58/130/11 54/131/11
f 49/107/21 56/122/26 55/125/26 50/108/22
f 54/132/11 58/133/11 60/134/11 52/135/11
f 53/113/4 57/112/4 56/136/4 49/118/4
f 63/137/4 75/138/4 76/139/4 64/140/4
f 65/148/11 77/149/11 78/150/11 66/151/11
f 68/152/11 80/153/11 79/154/11 67/155/11
f 64/140/4 76/139/4 74/156/4 62/157/4
f 76/169/10 80/170/10 78/171/10 74/172/10
f 75/173/1 79/174/1 80/175/1 76/176/1
f 74/172/9 78/171/9 77/177/9 73/178/9
f 73/178/8 77/177/8 79/174/8 75/173/8
f 67/155/11 79/154/11 77/149/11 65/148/11
f 62/157/4 74/156/4 73/179/4 61/180/4
f 66/151/11 78/150/11 80/153/11 68/152/11
f 61/180/4 73/179/4 75/138/4 63/137/4
f 89/203/1 91/204/33 92/205/34 90/206/1
f 93/207/4 101/208/4 99/209/4 95/210/4
f 94/211/35 102/212/36 101/213/36 93/214/37
f 93/214/37 89/203/10 90/206/10 94/211/35
f 91/215/4 89/216/4 93/207/4 95/210/4
f 98/221/8 99/222/8 100/223/8 97/224/8
f 99/225/9 101/213/9 102/212/9 100/226/9
f 92/227/11 97/228/11 100/229/11 96/230/11
f 91/204/33 98/221/38 97/224/38 92/205/34
f 96/231/11 100/232/11 102/233/11 94/234/11
f 95/210/4 99/209/4 98/45/4 91/215/4
f 105/235/4 117/236/4 118/237/4 106/238/4
f 107/248/11 119/249/11 120/250/11 108/251/11
f 110/252/11 122/253/11 121/254/11 109/255/11
f 106/238/4 118/237/4 116/256/4 104/257/4
f 118/269/8 122/270/8 120/271/8 116/272/8
f 117/273/9 121/274/9 122/275/9 118/276/9
f 116/272/1 120/271/1 119/277/1 115/278/1
f 115/278/10 119/277/10 121/274/10 117/273/10
f 109/255/11 121/254/11 119/249/11 107/248/11
f 104/257/4 116/256/4 115/279/4 103/280/4
f 108/251/11 120/250/11 122/253/11 110/252/11
f 103/280/4 115/279/4 117/236/4 105/235/4
f 131/303/9 132/304/9 134/305/45 133/306/46
f 135/307/4 137/308/4 141/309/4 143/310/4
f 136/311/47 135/312/48 143/313/49 144/314/49
f 135/312/48 136/311/47 132/304/10 131/303/10
f 133/315/4 137/308/4 135/307/4 131/316/4
f 140/321/8 139/322/8 142/323/8 141/324/8
f 141/325/1 142/326/1 144/314/1 143/313/1
f 134/327/11 138/328/11 142/329/11 139/330/11
f 133/306/46 134/305/45 139/322/50 140/321/50
f 138/331/11 136/332/11 144/333/11 142/334/11
f 137/308/4 133/315/4 140/72/4 141/309/4
f 147/335/4 148/336/4 160/36/4 159/279/4
f 149/346/11 150/347/11 162/348/11 161/349/11
f 152/350/11 151/351/11 163/352/11 164/353/11
f 148/336/4 146/354/4 158/355/4 160/36/4
f 160/275/8 158/274/8 162/365/8 164/366/8
f 159/271/1 160/270/1 164/367/1 163/368/1
f 158/274/9 157/277/9 161/369/9 162/365/9
f 157/277/10 159/271/10 163/368/10 161/369/10
f 151/351/11 149/346/11 161/349/11 163/352/11
f 146/354/4 145/370/4 157/371/4 158/355/4
f 150/347/11 152/350/11 164/353/11 162/348/11
f 145/370/4 147/335/4 159/279/4 157/371/4
usemtl Stand
f 6/15/9 8/16/9 18/17/9 17/18/9
f 4/38/2 2/39/1 15/40/1 16/41/1
f 2/39/8 6/15/5 17/18/8 15/40/8
f 8/42/10 4/38/10 16/41/10 18/43/10
f 36/44/9 35/45/9 26/46/9 25/47/9
f 35/65/10 38/66/10 24/67/10 26/68/10
f 22/80/10 20/81/10 38/82/10 35/83/10
f 19/84/8 21/85/8 36/86/8 37/87/8
f 20/81/1 19/84/1 37/87/1 38/82/1
f 21/85/9 22/88/9 35/89/9 36/86/9
f 52/41/1 63/120/1 64/121/1 54/43/1
f 50/18/22 62/141/9 61/142/9 48/40/9
f 48/40/8 61/142/8 63/120/8 52/41/23
f 54/17/10 64/143/10 62/141/10 50/18/10
f 82/144/1 71/145/1 72/146/1 81/147/1
f 81/165/10 72/166/10 70/167/10 84/168/10
f 68/181/10 81/182/10 84/183/10 66/184/10
f 65/185/8 83/186/8 82/187/8 67/188/8
f 66/184/9 84/183/9 83/186/9 65/185/9
f 67/188/1 82/187/1 81/189/1 68/190/1
f 94/217/9 105/218/9 106/219/9 96/220/9
f 92/239/34 104/240/1 103/241/1 90/242/1
f 90/242/10 103/241/10 105/218/10 94/217/35
f 96/243/8 106/244/8 104/240/8 92/239/8
f 124/245/9 113/246/9 114/247/9 123/68/9
f 123/265/8 114/266/8 112/267/8 126/268/8
f 110/281/8 123/282/8 126/283/8 108/284/8
f 107/285/10 125/286/10 124/287/10 109/288/10
f 108/284/1 126/283/1 125/286/1 107/285/1
f 109/288/9 124/287/9 123/289/9 110/290/9
f 136/317/1 138/318/1 148/319/1 147/320/1
f 134/337/45 132/338/9 145/339/9 146/340/9
f 132/338/10 136/317/47 147/320/10 145/339/10
f 138/341/8 134/337/8 146/340/8 148/17/8
f 166/342/1 165/343/1 156/344/1 155/345/1
f 165/363/8 168/266/8 154/364/8 156/7/8
f 152/372/8 150/373/8 168/374/8 165/375/8
f 149/376/10 151/377/10 166/378/10 167/379/10
f 150/373/9 149/376/9 167/379/9 168/374/9
f 151/377/1 152/380/1 165/381/1 166/378/1
usemtl Tarp
f 26/58/11 24/59/11 23/60/11 25/61/11
f 38/62/1 37/63/1 23/60/1 24/59/1
f 37/63/8 36/64/8 25/61/8 23/60/8
f 36/90/8 40/91/8 39/92/8 25/93/8
f 38/94/1 24/95/1 41/96/1 42/97/1
f 44/98/13 46/99/14 43/100/11
f 46/101/14 26/102/15 25/93/16 39/92/17 45/103/18
f 43/104/11 46/101/14 45/103/18
f 41/96/19 24/95/20 26/105/15 46/99/14 44/98/13
f 72/158/11 71/159/11 69/160/11 70/161/11
f 84/162/9 70/161/9 69/160/9 83/163/9
f 83/163/8 69/160/8 71/159/8 82/164/8
f 82/191/8 71/192/8 39/92/8 40/91/8
f 84/193/9 86/194/9 85/195/9 70/196/9
f 87/197/27 43/198/11 88/199/28
f 88/200/28 45/103/18 39/92/17 71/192/29 72/201/30
f 43/104/11 45/103/18 88/200/28
f 85/195/31 87/197/27 88/199/28 72/202/30 70/196/32
f 114/258/11 113/259/11 111/260/11 112/261/11
f 126/262/1 112/261/1 111/260/1 125/263/1
f 125/263/10 111/260/10 113/259/10 124/264/10
f 124/291/10 113/292/10 127/293/10 128/294/10
f 126/295/1 42/97/1 41/96/1 112/296/1
f 44/98/13 43/100/11 130/297/39
f 130/298/39 129/299/40 127/293/41 113/292/42 114/300/43
f 43/301/11 129/299/40 130/298/39
f 41/96/19 44/98/13 130/297/39 114/302/43 112/296/44
f 156/356/11 154/357/11 153/358/11 155/359/11
f 168/360/9 167/361/9 153/358/9 154/357/9
f 167/361/10 166/362/10 155/359/10 153/358/10
f 166/382/10 128/294/10 127/293/10 155/383/10
f 168/384/9 154/385/9 85/195/9 86/194/9
f 87/197/27 169/386/51 43/198/11
f 169/387/51 156/388/52 155/383/53 127/293/41 129/299/40
f 43/301/11 169/387/51 129/299/40
f 85/195/31 154/385/54 156/389/52 169/386/51 87/197/27
